<svg width="100" height="100" version="1.1" xmlns="http://www.w3.org/2000/svg" desc="Created with imagetracer.js version 1.2.6" ><path fill="rgb(210,206,223)" stroke="rgb(210,206,223)" stroke-width="1" opacity="1" d="M 42.5 16 L 50.5 17 L 52 18.5 L 44.5 19 L 42.5 19 Q 30.5 19 25.5 26 L 25 23 L 33.5 18 L 42.5 16 Z " /><path fill="rgb(210,206,223)" stroke="rgb(210,206,223)" stroke-width="1" opacity="1" d="M 37.5 23 Q 45.1 21.5 44 25 Q 32.5 25.1 27 32.5 L 24 37.5 L 21.5 47 L 21 39.5 Q 23.4 31.4 29.5 27 L 37.5 23 Z " /><path fill="rgb(210,206,223)" stroke="rgb(210,206,223)" stroke-width="1" opacity="1" d="M 77 32 Q 81 30.6 79 37.5 L 73.5 45 L 64.5 48 L 63.5 46 Q 71.3 45.3 75 40.5 Q 77.8 37.5 77 32 Z " /><path fill="rgb(242,241,246)" stroke="rgb(242,241,246)" stroke-width="1" opacity="1" d="M 38.5 16 L 42 16.5 L 38.5 17 L 38.5 16 Z " /><path fill="rgb(242,241,246)" stroke="rgb(242,241,246)" stroke-width="1" opacity="1" d="M 46.5 16 L 49 16.5 L 46.5 17 L 46.5 16 Z " /><path fill="rgb(242,241,246)" stroke="rgb(242,241,246)" stroke-width="1" opacity="1" d="M 49.5 19 L 52 19.5 L 49.5 20 L 49.5 19 Z " /><path fill="rgb(242,241,246)" stroke="rgb(242,241,246)" stroke-width="1" opacity="1" d="M 27.5 21 L 26.5 23 L 27.5 21 Z " /><path fill="rgb(242,241,246)" stroke="rgb(242,241,246)" stroke-width="1" opacity="1" d="M 42.5 22 L 45 23.5 L 44.5 25 L 44 23 L 42.5 22 Z " /><path fill="rgb(242,241,246)" stroke="rgb(242,241,246)" stroke-width="1" opacity="1" d="M 28.5 23 L 26.5 26 L 28.5 23 Z " /><path fill="rgb(242,241,246)" stroke="rgb(242,241,246)" stroke-width="1" opacity="1" d="M 29.5 30 L 27.5 33 L 29.5 30 Z " /><path fill="rgb(242,241,246)" stroke="rgb(242,241,246)" stroke-width="1" opacity="1" d="M 25.5 31 L 24.5 33 L 25.5 31 Z " /><path fill="rgb(242,241,246)" stroke="rgb(242,241,246)" stroke-width="1" opacity="1" d="M 78.5 31 Q 80.8 31.8 80 35.5 L 79 35.5 L 78.5 31 Z " /><path fill="rgb(242,241,246)" stroke="rgb(242,241,246)" stroke-width="1" opacity="1" d="M 74.5 40 L 72.5 43 L 74.5 40 Z " /><path fill="rgb(242,241,246)" stroke="rgb(242,241,246)" stroke-width="1" opacity="1" d="M 77.5 40 L 76.5 42 L 77.5 40 Z " /><path fill="rgb(242,241,246)" stroke="rgb(242,241,246)" stroke-width="1" opacity="1" d="M 20.5 41 L 21 46.5 L 20 46.5 L 20.5 41 Z " /><path fill="rgb(146,212,181)" stroke="rgb(146,212,181)" stroke-width="1" opacity="1" d="M 59.5 22 L 71 22.5 L 59.5 23 L 59.5 22 Z " /><path fill="rgb(146,212,181)" stroke="rgb(146,212,181)" stroke-width="1" opacity="1" d="M 75.5 23 L 76 26.5 L 75 26.5 L 75.5 23 Z " /><path fill="rgb(146,212,181)" stroke="rgb(146,212,181)" stroke-width="1" opacity="1" d="M 46.5 36 L 48 41.5 L 46 40.5 L 46.5 36 Z " /><path fill="rgb(146,212,181)" stroke="rgb(146,212,181)" stroke-width="1" opacity="1" d="M 49.5 41 L 63 41.5 L 49.5 42 L 49.5 41 Z " /><path fill="rgb(146,212,181)" stroke="rgb(146,212,181)" stroke-width="1" opacity="1" d="M 26.5 49 L 27 52.5 L 26 52.5 L 26.5 49 Z " /><path fill="rgb(146,212,181)" stroke="rgb(146,212,181)" stroke-width="1" opacity="1" d="M 32.5 67 L 34.5 70 L 32.5 67 Z " /><path fill="rgb(255,255,255)" stroke="rgb(255,255,255)" stroke-width="1" opacity="1" d="M 0 0 L 100 0 L 100 100 L 0 100 L 0 0 Z M 39 16 L 28 21 L 24 26 L 27 26 Q 31 21 39 19 L 49 19 L 50 20 Q 54 21 52 17 Q 47 15 39 16 Z M 73 16 L 73 22 L 60 22 L 55 24 Q 48 28 46 36 Q 45 41 48 42 Q 62 44 70 39 Q 78 33 76 18 L 73 16 Z M 43 22 L 31 26 Q 23 31 20 42 Q 18 49 23 47 Q 22 39 26 35 Q 31 27 42 25 Q 46 26 45 24 L 43 22 Z M 79 31 L 77 33 L 76 39 Q 73 44 65 45 L 63 48 Q 69 49 73 46 Q 78 43 80 36 Q 81 32 79 31 Z M 29 37 L 26 40 Q 24 57 30 66 Q 35 74 48 76 L 68 76 L 69 75 L 69 66 L 63 54 L 52 48 L 32 48 L 32 40 L 29 37 Z " /><path fill="rgb(69,177,129)" stroke="rgb(69,177,129)" stroke-width="1" opacity="1" d="M 74.5 16 L 75 25.5 Q 65.9 32.6 54 36 L 55.5 33 L 69.5 26 L 73 22.5 Q 71.8 17.3 74.5 16 Z " /><path fill="rgb(69,177,129)" stroke="rgb(69,177,129)" stroke-width="1" opacity="1" d="M 59.5 23 L 62 23.5 Q 53.8 25.3 50.5 32 L 52 29.5 L 54.5 26 L 59.5 23 Z " /><path fill="rgb(69,177,129)" stroke="rgb(69,177,129)" stroke-width="1" opacity="1" d="M 70.5 36 L 69.5 38 L 70.5 36 Z " /><path fill="rgb(69,177,129)" stroke="rgb(69,177,129)" stroke-width="1" opacity="1" d="M 27 38 L 31 38 L 31 39.5 L 32 40.5 L 32 48 L 48.5 48 Q 58 49.5 63 55.5 L 65 58.5 L 59.5 54 L 55.5 53 L 55.5 54 L 64 61.5 L 66.5 67 L 68 66.5 L 69 73.5 L 67.5 75 L 45.5 75 Q 35.9 72.6 31 65.5 L 28 57.5 Q 28.7 50.8 26 47.5 L 26 40.5 L 27 38 Z M 57 65 L 59 67 Q 60 64 57 65 Z " /><path fill="rgb(91,196,147)" stroke="rgb(91,196,147)" stroke-width="1" opacity="1" d="M 75.5 18 L 76 22.5 L 75 22.5 L 75.5 18 Z " /><path fill="rgb(91,196,147)" stroke="rgb(91,196,147)" stroke-width="1" opacity="1" d="M 71.5 22 L 73 22.5 L 69.5 26 L 54 34.5 Q 53.2 37.1 56.5 36 L 74.5 26 L 75 29.5 L 72 36 L 69 37.5 L 68.5 39 L 67 38.5 L 66.5 40 L 65 39.5 Q 65.8 41.8 63.5 41 L 61.5 40 L 60.5 41 L 50.5 41 L 48.5 40 L 48.5 42 Q 45.5 40.5 47 34.5 L 52.5 26 L 56.5 24 L 58.5 25 L 58.5 23 L 61.5 24 L 71.5 22 Z M 55 26 L 52 30 L 56 27 L 55 26 Z " /><path fill="rgb(91,196,147)" stroke="rgb(91,196,147)" stroke-width="1" opacity="1" d="M 27.5 52 L 29 60.5 L 28 60.5 L 27.5 52 Z " /><path fill="rgb(91,196,147)" stroke="rgb(91,196,147)" stroke-width="1" opacity="1" d="M 59.5 52 L 62.5 57 L 64 56.5 Q 61.8 57.8 64.5 59 Q 66.8 58.3 66 60.5 L 69 67.5 L 68 67.5 L 67.5 66 L 66 66.5 Q 63.6 57.9 56.5 54 L 55 53.5 L 57.5 53 L 59.5 54 L 59.5 52 Z " /><path fill="rgb(91,196,147)" stroke="rgb(91,196,147)" stroke-width="1" opacity="1" d="M 52.5 62 L 53.5 64 L 52.5 62 Z " /><path fill="rgb(91,196,147)" stroke="rgb(91,196,147)" stroke-width="1" opacity="1" d="M 55.5 64 L 59 65 Q 60.1 67.7 57.5 67 L 55.5 64 Z " /><path fill="rgb(91,196,147)" stroke="rgb(91,196,147)" stroke-width="1" opacity="1" d="M 50.5 75 L 67 75.5 L 50.5 76 L 50.5 75 Z " /></svg>